<?xml version="1.0" encoding="utf-8"?>
<!-- Generator: Adobe Illustrator 16.0.4, SVG Export Plug-In . SVG Version: 6.00 Build 0)  -->
<!DOCTYPE svg PUBLIC "-//W3C//DTD SVG 1.1//EN" "http://www.w3.org/Graphics/SVG/1.1/DTD/svg11.dtd">
<svg version="1.1" id="Layer_1" xmlns="http://www.w3.org/2000/svg" xmlns:xlink="http://www.w3.org/1999/xlink" x="0px" y="0px"
	 width="282.092px" height="71.383px" viewBox="0 0 282.092 71.383" enable-background="new 0 0 282.092 71.383"
	 xml:space="preserve">
<g>
	<g>
		<g>
			<polygon fill="#FF3B3F" points="4.898,12.935 4.898,28.277 10.5,25.438 10.5,17.958 14.151,17.958 14.151,27.132 4.898,32.099 
				4.898,38.338 19.944,29.84 19.944,12.935 			"/>
			<polygon fill="#FF3B3F" points="38.49,12.935 38.49,28.277 32.889,25.438 32.889,17.958 29.24,17.958 29.24,27.132 38.49,32.099 
				38.49,38.338 23.445,29.84 23.445,12.935 			"/>
		</g>
		<polygon fill="#FF3B3F" points="21.62,33.309 4.909,43.24 4.909,48.838 21.62,38.91 38.329,48.838 38.329,43.24 		"/>
		<rect x="4.898" y="4.798" fill="#FF3B3F" width="33.248" height="4.947"/>
		<rect x="141.046" y="58.33" fill="#FF3B3F" width="4.754" height="4.947"/>
	</g>
	<g enable-background="new    ">
		<path fill="#FFFFFF" d="M71.205,41.369c0,0.933-0.177,1.803-0.528,2.613c-0.353,0.811-0.839,1.519-1.46,2.126
			c-0.622,0.608-1.347,1.085-2.175,1.428c-0.829,0.345-1.72,0.517-2.672,0.517H50.762c-0.415,0-0.622-0.202-0.622-0.607V6.13
			c0-0.404,0.207-0.607,0.622-0.607H64.37c0.952,0,1.843,0.173,2.672,0.517c0.828,0.345,1.553,0.82,2.175,1.428
			c0.621,0.607,1.107,1.317,1.46,2.126c0.352,0.811,0.528,1.681,0.528,2.613V41.369z M64.867,11.598h-8.327v30.439h8.327V11.598z"/>
		<path fill="#FFFFFF" d="M98.483,47.445c0,0.405-0.208,0.607-0.622,0.607h-5.157c-0.415,0-0.622-0.202-0.622-0.607V29.765h-8.264
			v17.681c0,0.405-0.228,0.607-0.683,0.607H78.04c-0.415,0-0.622-0.202-0.622-0.607V12.206c0-0.932,0.176-1.802,0.528-2.613
			c0.352-0.81,0.839-1.519,1.46-2.126c0.622-0.607,1.346-1.083,2.175-1.428c0.828-0.344,1.719-0.517,2.672-0.517h7.395
			c0.952,0,1.843,0.173,2.672,0.517c0.828,0.345,1.553,0.82,2.175,1.428c0.621,0.607,1.107,1.317,1.46,2.126
			c0.352,0.811,0.528,1.681,0.528,2.613V47.445z M92.083,11.598h-8.264V23.75h8.264V11.598z"/>
		<path fill="#FFFFFF" d="M116.937,47.445c-0.083,0.405-0.332,0.607-0.746,0.607h-5.095c-0.415,0-0.663-0.202-0.746-0.607
			L103.142,6.13c-0.083-0.404,0.083-0.607,0.497-0.607h5.095c0.456,0,0.724,0.203,0.808,0.607l4.101,23.513l4.101-23.513
			c0.083-0.404,0.311-0.607,0.684-0.607h5.157c0.414,0,0.58,0.203,0.497,0.607L116.937,47.445z"/>
		<path fill="#FFFFFF" d="M135.142,47.445c0,0.405-0.208,0.607-0.621,0.607h-5.157c-0.415,0-0.622-0.202-0.622-0.607V6.13
			c0-0.404,0.207-0.607,0.622-0.607h5.157c0.414,0,0.621,0.203,0.621,0.607V47.445z"/>
		<path fill="#FFFFFF" d="M163.042,41.369c0,0.933-0.177,1.803-0.528,2.613c-0.353,0.811-0.839,1.519-1.46,2.126
			c-0.621,0.608-1.347,1.085-2.175,1.428c-0.829,0.345-1.72,0.517-2.672,0.517h-13.608c-0.414,0-0.621-0.202-0.621-0.607V6.13
			c0-0.404,0.207-0.607,0.621-0.607h13.608c0.952,0,1.843,0.173,2.672,0.517c0.828,0.345,1.554,0.82,2.175,1.428
			s1.107,1.317,1.46,2.126c0.352,0.811,0.528,1.681,0.528,2.613V41.369z M156.704,11.598h-8.326v30.439h8.326V11.598z"/>
	</g>
	<g enable-background="new    ">
		<path fill="#FFFFFF" d="M198.645,41.369c0,0.933-0.177,1.803-0.528,2.613s-0.838,1.519-1.46,2.126
			c-0.622,0.608-1.347,1.085-2.175,1.428c-0.829,0.345-1.719,0.517-2.672,0.517h-7.395c-0.953,0-1.844-0.172-2.672-0.517
			c-0.828-0.343-1.553-0.819-2.174-1.428c-0.622-0.607-1.109-1.315-1.461-2.126c-0.353-0.811-0.527-1.681-0.527-2.613V12.206
			c0-0.932,0.175-1.802,0.527-2.613c0.352-0.81,0.839-1.519,1.461-2.126c0.621-0.607,1.346-1.083,2.174-1.428
			c0.828-0.344,1.719-0.517,2.672-0.517h7.395c0.953,0,1.843,0.173,2.672,0.517c0.828,0.345,1.553,0.82,2.175,1.428
			s1.108,1.317,1.46,2.126c0.352,0.811,0.528,1.681,0.528,2.613v4.678c0,0.446-0.208,0.668-0.621,0.668h-5.095
			c-0.415,0-0.622-0.222-0.622-0.668v-5.286h-8.326v30.439h8.326v-5.042c0-0.405,0.207-0.608,0.622-0.608h5.095
			c0.413,0,0.621,0.203,0.621,0.608V41.369z"/>
		<path fill="#FFFFFF" d="M226.419,47.445c0,0.405-0.207,0.607-0.621,0.607h-5.095c-0.415,0-0.622-0.202-0.622-0.607v-17.62h-9.134
			v17.62c0,0.405-0.228,0.607-0.683,0.607h-5.096c-0.414,0-0.621-0.202-0.621-0.607V6.13c0-0.404,0.207-0.607,0.621-0.607h5.096
			c0.455,0,0.683,0.203,0.683,0.607v17.62h9.134V6.13c0-0.404,0.207-0.607,0.622-0.607h5.095c0.414,0,0.621,0.203,0.621,0.607
			V47.445z"/>
		<path fill="#FFFFFF" d="M249.224,47.445c0,0.405-0.229,0.607-0.684,0.607h-9.072c-0.953,0-1.844-0.172-2.672-0.517
			c-0.829-0.343-1.554-0.819-2.175-1.428c-0.622-0.607-1.108-1.315-1.46-2.126c-0.354-0.811-0.528-1.681-0.528-2.613V12.206
			c0-0.932,0.175-1.802,0.528-2.613c0.352-0.81,0.838-1.519,1.46-2.126c0.621-0.607,1.346-1.083,2.175-1.428
			c0.828-0.344,1.719-0.517,2.672-0.517h9.072c0.455,0,0.684,0.203,0.684,0.607v4.8c0,0.446-0.229,0.668-0.684,0.668h-9.508V23.75
			h9.508c0.455,0,0.684,0.203,0.684,0.607v4.8c0,0.405-0.229,0.607-0.684,0.607h-9.508v12.272h9.508
			c0.455,0,0.684,0.203,0.684,0.608V47.445z"/>
		<path fill="#FFFFFF" d="M277.245,47.445c0,0.405-0.207,0.607-0.621,0.607h-5.095c-0.415,0-0.622-0.202-0.622-0.607V11.598h-9.134
			v35.847c0,0.405-0.228,0.607-0.683,0.607h-5.096c-0.414,0-0.621-0.202-0.621-0.607V6.13c0-0.404,0.207-0.607,0.621-0.607h5.096
			c0.455,0,0.683,0.203,0.683,0.607v1.458c0.579-0.647,1.306-1.154,2.175-1.519c0.87-0.365,1.781-0.547,2.734-0.547h3.729
			c0.952,0,1.842,0.173,2.672,0.517c0.828,0.345,1.553,0.82,2.174,1.428s1.108,1.317,1.461,2.126
			c0.352,0.811,0.527,1.681,0.527,2.613V47.445z"/>
	</g>
	<g>
		<g enable-background="new    ">
			<path fill="#FFFFFF" d="M5.253,55.546h1.739l1.71,7.847h0.03l2.113-7.847h1.194l2.105,7.847h0.03l1.717-7.847h1.739
				l-2.717,11.038h-1.381l-2.075-7.961h-0.03l-2.083,7.961H7.97L5.253,55.546z"/>
			<path fill="#FFFFFF" d="M20.314,55.546h6.954v1.574h-5.306v3.158h4.529v1.482h-4.529v3.249h5.306v1.574h-6.954V55.546z"/>
			<path fill="#FFFFFF" d="M30.041,55.546h4.219c1.07,0.011,1.875,0.282,2.412,0.817c0.542,0.541,0.814,1.255,0.814,2.143
				c0.01,0.455-0.097,0.889-0.321,1.303c-0.114,0.197-0.278,0.383-0.493,0.561c-0.214,0.186-0.478,0.355-0.791,0.507v0.03
				c0.594,0.156,1.043,0.472,1.348,0.946c0.285,0.489,0.427,1.022,0.427,1.597c-0.01,0.955-0.304,1.709-0.882,2.264
				c-0.573,0.581-1.288,0.871-2.145,0.871h-4.588V55.546z M31.689,57.029v3.174h2.384c0.603,0,1.046-0.16,1.33-0.48
				c0.289-0.293,0.433-0.664,0.433-1.11s-0.145-0.825-0.433-1.134c-0.284-0.289-0.728-0.439-1.33-0.449H31.689z M31.689,61.686
				v3.324h2.544c0.614-0.01,1.063-0.18,1.347-0.508c0.284-0.324,0.427-0.709,0.427-1.154c0-0.455-0.143-0.846-0.427-1.169
				c-0.284-0.319-0.733-0.483-1.347-0.493H31.689z"/>
			<path fill="#FFFFFF" d="M45.348,55.546h3.809c1.474,0.011,2.579,0.632,3.316,1.862c0.264,0.414,0.43,0.848,0.5,1.303
				c0.055,0.454,0.082,1.238,0.082,2.354c0,1.187-0.042,2.014-0.127,2.484c-0.04,0.236-0.1,0.449-0.179,0.635
				c-0.084,0.182-0.187,0.371-0.306,0.568c-0.318,0.52-0.762,0.949-1.329,1.287c-0.562,0.363-1.252,0.545-2.069,0.545h-3.696V55.546
				z M46.996,65.01h1.974c0.927,0,1.6-0.32,2.019-0.963c0.184-0.238,0.301-0.539,0.351-0.903c0.045-0.358,0.067-1.032,0.067-2.019
				c0-0.96-0.022-1.648-0.067-2.062c-0.06-0.415-0.202-0.752-0.426-1.01c-0.459-0.642-1.106-0.953-1.944-0.933h-1.974V65.01z"/>
			<path fill="#FFFFFF" d="M56.239,55.546h6.954v1.574h-5.306v3.158h4.529v1.482h-4.529v3.249h5.306v1.574h-6.954V55.546z"/>
			<path fill="#FFFFFF" d="M64.833,55.546h1.745l2.468,8.408h0.03l2.476-8.408h1.745l-3.594,11.038h-1.282L64.833,55.546z"/>
			<path fill="#FFFFFF" d="M75.693,55.546h6.954v1.574h-5.306v3.158h4.529v1.482h-4.529v3.249h5.306v1.574h-6.954V55.546z"/>
			<path fill="#FFFFFF" d="M85.42,55.546h1.648v9.464h5.306v1.574H85.42V55.546z"/>
			<path fill="#FFFFFF" d="M94.777,61.064c0-1.284,0.037-2.144,0.112-2.578c0.08-0.436,0.202-0.787,0.366-1.055
				c0.264-0.508,0.687-0.961,1.269-1.357c0.572-0.402,1.286-0.609,2.142-0.619c0.866,0.01,1.587,0.217,2.164,0.621
				c0.572,0.398,0.985,0.854,1.239,1.363c0.184,0.268,0.311,0.617,0.38,1.052c0.065,0.435,0.097,1.292,0.097,2.573
				c0,1.262-0.032,2.115-0.097,2.56c-0.069,0.444-0.196,0.8-0.38,1.067c-0.254,0.51-0.667,0.959-1.239,1.348
				c-0.577,0.404-1.299,0.615-2.164,0.636c-0.856-0.021-1.57-0.231-2.142-0.636c-0.582-0.389-1.005-0.838-1.269-1.348
				c-0.08-0.166-0.152-0.326-0.216-0.477c-0.06-0.156-0.11-0.354-0.149-0.591C94.814,63.18,94.777,62.326,94.777,61.064z
				 M96.425,61.064c0,1.088,0.04,1.824,0.12,2.208c0.07,0.385,0.212,0.696,0.426,0.934c0.175,0.228,0.404,0.412,0.688,0.554
				c0.279,0.167,0.613,0.25,1.002,0.25c0.394,0,0.735-0.083,1.024-0.25c0.274-0.142,0.494-0.326,0.658-0.554
				c0.214-0.237,0.361-0.549,0.441-0.934c0.075-0.384,0.112-1.12,0.112-2.208c0-1.087-0.038-1.828-0.112-2.223
				c-0.08-0.374-0.227-0.68-0.441-0.918c-0.165-0.227-0.384-0.417-0.658-0.568c-0.289-0.146-0.63-0.225-1.024-0.235
				c-0.389,0.011-0.723,0.089-1.002,0.235c-0.284,0.151-0.513,0.342-0.688,0.568c-0.214,0.238-0.356,0.544-0.426,0.918
				C96.465,59.236,96.425,59.978,96.425,61.064z"/>
			<path fill="#FFFFFF" d="M105.722,55.546h3.946c0.429,0,0.842,0.04,1.241,0.122c0.398,0.105,0.802,0.322,1.21,0.65
				c0.343,0.247,0.622,0.601,0.835,1.06c0.224,0.444,0.335,0.97,0.335,1.575c0,0.816-0.284,1.562-0.852,2.232
				c-0.583,0.707-1.435,1.07-2.556,1.09h-2.512v4.309h-1.648V55.546z M107.37,60.702h2.446c0.614-0.01,1.075-0.202,1.384-0.577
				c0.294-0.365,0.441-0.771,0.441-1.218c0-0.37-0.06-0.682-0.18-0.936c-0.125-0.228-0.299-0.407-0.523-0.54
				c-0.339-0.218-0.733-0.322-1.182-0.312h-2.387V60.702z"/>
			<path fill="#FFFFFF" d="M116.027,55.546h6.954v1.574h-5.306v3.158h4.529v1.482h-4.529v3.249h5.306v1.574h-6.954V55.546z"/>
			<path fill="#FFFFFF" d="M125.754,55.546h4.253c0.907,0,1.647,0.243,2.22,0.728c0.69,0.55,1.05,1.334,1.08,2.354
				c-0.02,1.5-0.721,2.52-2.102,3.059l2.52,4.898h-1.958l-2.253-4.717h-2.111v4.717h-1.648V55.546z M127.402,60.385h2.5
				c0.619-0.01,1.083-0.192,1.393-0.547c0.304-0.329,0.457-0.734,0.457-1.215c-0.01-0.576-0.192-0.994-0.546-1.252
				c-0.28-0.229-0.684-0.342-1.213-0.342h-2.59V60.385z"/>
		</g>
		<g enable-background="new    ">
			<path fill="#FFFFFF" d="M156.744,60.514h3.869v2.244c-0.021,1.104-0.394,2.029-1.12,2.775c-0.73,0.741-1.65,1.121-2.76,1.142
				c-0.856-0.021-1.57-0.231-2.143-0.636c-0.582-0.389-1.005-0.838-1.269-1.348c-0.079-0.166-0.151-0.326-0.216-0.477
				c-0.061-0.156-0.11-0.354-0.15-0.591c-0.074-0.444-0.111-1.298-0.111-2.56c0-1.281,0.037-2.139,0.111-2.573
				c0.08-0.435,0.202-0.784,0.366-1.052c0.264-0.51,0.687-0.965,1.269-1.363c0.572-0.404,1.286-0.611,2.143-0.621
				c1.049,0.01,1.904,0.326,2.566,0.946c0.662,0.626,1.08,1.4,1.254,2.323h-1.749c-0.134-0.445-0.378-0.826-0.731-1.141
				c-0.369-0.299-0.818-0.453-1.346-0.464c-0.389,0.011-0.723,0.089-1.002,0.235c-0.283,0.151-0.513,0.342-0.688,0.568
				c-0.214,0.238-0.355,0.544-0.426,0.918c-0.08,0.395-0.119,1.136-0.119,2.223c0,1.088,0.039,1.824,0.119,2.208
				c0.07,0.385,0.212,0.696,0.426,0.934c0.176,0.228,0.404,0.412,0.688,0.554c0.279,0.167,0.613,0.25,1.003,0.25
				c0.643,0,1.174-0.223,1.592-0.668c0.42-0.426,0.634-0.984,0.645-1.678v-0.578h-2.222V60.514z"/>
			<path fill="#FFFFFF" d="M163.79,55.546h4.252c0.908,0,1.648,0.243,2.221,0.728c0.689,0.55,1.05,1.334,1.08,2.354
				c-0.021,1.5-0.721,2.52-2.103,3.059l2.52,4.898h-1.958l-2.254-4.717h-2.11v4.717h-1.647V55.546z M165.438,60.385h2.5
				c0.619-0.01,1.083-0.192,1.393-0.547c0.304-0.329,0.456-0.734,0.456-1.215c-0.01-0.576-0.191-0.994-0.546-1.252
				c-0.28-0.229-0.684-0.342-1.213-0.342h-2.59V60.385z"/>
			<path fill="#FFFFFF" d="M179.943,64.115h-4.129l-0.836,2.469h-1.747l3.957-11.038h1.381l3.957,11.038h-1.74L179.943,64.115z
				 M179.473,62.633l-1.575-4.828h-0.029l-1.576,4.828H179.473z"/>
			<path fill="#FFFFFF" d="M184.939,55.546h3.946c0.428,0,0.842,0.04,1.24,0.122c0.398,0.105,0.803,0.322,1.211,0.65
				c0.343,0.247,0.621,0.601,0.835,1.06c0.224,0.444,0.335,0.97,0.335,1.575c0,0.816-0.283,1.562-0.852,2.232
				c-0.583,0.707-1.436,1.07-2.557,1.09h-2.512v4.309h-1.647V55.546z M186.587,60.702h2.447c0.613-0.01,1.074-0.202,1.384-0.577
				c0.294-0.365,0.441-0.771,0.441-1.218c0-0.37-0.06-0.682-0.18-0.936c-0.124-0.228-0.3-0.407-0.523-0.54
				c-0.339-0.218-0.733-0.322-1.183-0.312h-2.387V60.702z"/>
			<path fill="#FFFFFF" d="M201.211,61.761h-4.318v4.823h-1.647V55.546h1.647v4.732h4.318v-4.732h1.647v11.038h-1.647V61.761z"/>
			<path fill="#FFFFFF" d="M206.421,55.546h1.648v11.038h-1.648V55.546z"/>
			<path fill="#FFFFFF" d="M218.78,63.5c-0.238,1.023-0.694,1.809-1.367,2.358c-0.691,0.544-1.511,0.816-2.457,0.816
				c-0.855-0.021-1.57-0.231-2.142-0.636c-0.583-0.389-1.005-0.838-1.269-1.348c-0.08-0.166-0.152-0.326-0.217-0.477
				c-0.06-0.156-0.109-0.354-0.149-0.591c-0.075-0.444-0.112-1.298-0.112-2.56c0-1.281,0.037-2.139,0.112-2.573
				c0.079-0.435,0.202-0.784,0.366-1.052c0.264-0.51,0.687-0.965,1.27-1.363c0.572-0.404,1.286-0.611,2.143-0.621
				c1.05,0.01,1.906,0.325,2.568,0.945c0.662,0.625,1.08,1.398,1.254,2.32h-1.75c-0.135-0.445-0.379-0.824-0.732-1.138
				c-0.369-0.298-0.817-0.452-1.346-0.463c-0.389,0.011-0.723,0.089-1.002,0.235c-0.285,0.151-0.514,0.342-0.688,0.568
				c-0.214,0.238-0.356,0.544-0.427,0.918c-0.079,0.395-0.119,1.136-0.119,2.223c0,1.088,0.04,1.824,0.12,2.208
				c0.069,0.385,0.212,0.696,0.427,0.934c0.174,0.228,0.403,0.412,0.688,0.554c0.279,0.167,0.613,0.25,1.002,0.25
				c0.928,0,1.621-0.503,2.08-1.51H218.78z"/>
			<path fill="#FFFFFF" d="M231.476,64.115h-4.129l-0.836,2.469h-1.747l3.957-11.038h1.381l3.957,11.038h-1.739L231.476,64.115z
				 M231.005,62.633l-1.575-4.828h-0.03l-1.574,4.828H231.005z"/>
			<path fill="#FFFFFF" d="M236.472,55.546h4.254c0.906,0,1.646,0.243,2.22,0.728c0.69,0.55,1.05,1.334,1.079,2.354
				c-0.02,1.5-0.721,2.52-2.102,3.059l2.52,4.898h-1.959l-2.252-4.717h-2.111v4.717h-1.648V55.546z M238.12,60.385h2.5
				c0.619-0.01,1.083-0.192,1.393-0.547c0.305-0.329,0.457-0.734,0.457-1.215c-0.011-0.576-0.193-0.994-0.547-1.252
				c-0.279-0.229-0.684-0.342-1.213-0.342h-2.59V60.385z"/>
			<path fill="#FFFFFF" d="M248.611,57.029h-2.983v-1.483h7.617v1.483h-2.985v9.555h-1.648V57.029z"/>
			<path fill="#FFFFFF" d="M255.603,55.546h1.647v11.038h-1.647V55.546z"/>
			<path fill="#FFFFFF" d="M260.755,63.91c0.866,0.723,1.897,1.09,3.093,1.1c1.415-0.02,2.132-0.533,2.152-1.538
				c0.011-0.823-0.463-1.318-1.419-1.485c-0.438-0.061-0.919-0.129-1.441-0.204c-0.936-0.157-1.648-0.508-2.136-1.054
				c-0.503-0.561-0.755-1.242-0.755-2.045c0-0.965,0.316-1.743,0.947-2.334c0.612-0.586,1.48-0.885,2.604-0.895
				c1.354,0.03,2.529,0.41,3.529,1.141l-0.92,1.374c-0.816-0.546-1.715-0.829-2.696-0.85c-0.508,0-0.931,0.129-1.271,0.386
				c-0.354,0.269-0.535,0.668-0.545,1.197c0,0.318,0.122,0.607,0.366,0.864c0.243,0.263,0.635,0.444,1.173,0.546
				c0.299,0.051,0.707,0.108,1.225,0.174c1.021,0.142,1.774,0.514,2.262,1.113c0.484,0.592,0.725,1.279,0.725,2.062
				c-0.055,2.112-1.328,3.183-3.819,3.213c-1.611,0-2.997-0.502-4.155-1.507L260.755,63.91z"/>
			<path fill="#FFFFFF" d="M272.474,57.029h-2.983v-1.483h7.617v1.483h-2.985v9.555h-1.648V57.029z"/>
		</g>
	</g>
</g>
</svg>
