<?xml version="1.0" encoding="utf-8"?>
<!-- Generator: Adobe Illustrator 16.0.4, SVG Export Plug-In . SVG Version: 6.00 Build 0)  -->
<!DOCTYPE svg PUBLIC "-//W3C//DTD SVG 1.1//EN" "http://www.w3.org/Graphics/SVG/1.1/DTD/svg11.dtd">
<svg version="1.1" id="Layer_1" xmlns="http://www.w3.org/2000/svg" xmlns:xlink="http://www.w3.org/1999/xlink" x="0px" y="0px"
	 width="282.092px" height="71.383px" viewBox="0 0 282.092 71.383" enable-background="new 0 0 282.092 71.383"
	 xml:space="preserve">
<g>
	<g>
		<g>
			<g>
				<polygon fill="#FF3B3F" points="4.898,13.847 4.898,29.188 10.5,26.35 10.5,18.87 14.151,18.87 14.151,28.043 4.898,33.011 
					4.898,39.25 19.944,30.751 19.944,13.847 				"/>
				<polygon fill="#FF3B3F" points="38.49,13.847 38.49,29.188 32.889,26.35 32.889,18.87 29.24,18.87 29.24,28.043 38.49,33.011 
					38.49,39.25 23.445,30.751 23.445,13.847 				"/>
			</g>
			<polygon fill="#FF3B3F" points="21.62,34.221 4.909,44.152 4.909,49.75 21.62,39.822 38.329,49.75 38.329,44.152 			"/>
			<rect x="4.898" y="5.709" fill="#FF3B3F" width="33.248" height="4.947"/>
			<rect x="165.733" y="59.242" fill="#FF3B3F" width="4.754" height="4.947"/>
		</g>
		<g enable-background="new    ">
			<path fill="#FFFFFF" d="M71.205,42.281c0,0.932-0.177,1.803-0.528,2.613c-0.353,0.811-0.839,1.518-1.46,2.125
				c-0.622,0.607-1.347,1.086-2.175,1.428c-0.829,0.346-1.72,0.518-2.672,0.518H50.762c-0.415,0-0.622-0.201-0.622-0.607V7.042
				c0-0.404,0.207-0.607,0.622-0.607H64.37c0.952,0,1.843,0.173,2.672,0.517c0.828,0.345,1.553,0.82,2.175,1.428
				c0.621,0.607,1.107,1.317,1.46,2.126c0.352,0.811,0.528,1.681,0.528,2.613V42.281z M64.867,12.51H56.54v30.439h8.327V12.51z"/>
			<path fill="#FFFFFF" d="M98.483,48.357c0,0.404-0.208,0.605-0.622,0.605h-5.157c-0.415,0-0.622-0.201-0.622-0.605V30.677h-8.264
				v17.681c0,0.406-0.228,0.607-0.683,0.607H78.04c-0.415,0-0.622-0.201-0.622-0.607v-35.24c0-0.932,0.176-1.802,0.528-2.613
				c0.352-0.81,0.839-1.519,1.46-2.126c0.622-0.607,1.346-1.083,2.175-1.428c0.828-0.344,1.719-0.517,2.672-0.517h7.395
				c0.952,0,1.843,0.173,2.672,0.517c0.828,0.345,1.553,0.82,2.175,1.428c0.621,0.607,1.107,1.317,1.46,2.126
				c0.352,0.811,0.528,1.681,0.528,2.613V48.357z M92.083,12.51h-8.264v12.152h8.264V12.51z"/>
			<path fill="#FFFFFF" d="M116.937,48.357c-0.083,0.404-0.332,0.605-0.746,0.605h-5.095c-0.415,0-0.663-0.201-0.746-0.605
				l-7.208-41.316c-0.083-0.404,0.083-0.607,0.497-0.607h5.095c0.456,0,0.724,0.203,0.808,0.607l4.101,23.513l4.101-23.513
				c0.083-0.404,0.311-0.607,0.684-0.607h5.157c0.414,0,0.58,0.203,0.497,0.607L116.937,48.357z"/>
			<path fill="#FFFFFF" d="M135.142,48.357c0,0.404-0.208,0.605-0.621,0.605h-5.157c-0.415,0-0.622-0.201-0.622-0.605V7.042
				c0-0.404,0.207-0.607,0.622-0.607h5.157c0.414,0,0.621,0.203,0.621,0.607V48.357z"/>
			<path fill="#FFFFFF" d="M163.042,42.281c0,0.932-0.177,1.803-0.527,2.613c-0.354,0.811-0.84,1.518-1.461,2.125
				s-1.347,1.086-2.175,1.428c-0.829,0.346-1.72,0.518-2.672,0.518h-13.608c-0.414,0-0.621-0.201-0.621-0.607V7.042
				c0-0.404,0.207-0.607,0.621-0.607h13.608c0.952,0,1.843,0.173,2.672,0.517c0.828,0.345,1.554,0.82,2.175,1.428
				c0.621,0.608,1.107,1.317,1.461,2.126c0.352,0.811,0.527,1.681,0.527,2.613V42.281z M156.704,12.51h-8.326v30.439h8.326V12.51z"
				/>
		</g>
		<g enable-background="new    ">
			<path fill="#FFFFFF" d="M198.646,42.281c0,0.932-0.178,1.803-0.528,2.613c-0.351,0.809-0.839,1.518-1.46,2.125
				c-0.622,0.607-1.348,1.086-2.176,1.428c-0.828,0.346-1.719,0.518-2.672,0.518h-7.395c-0.953,0-1.844-0.172-2.672-0.518
				c-0.828-0.342-1.553-0.818-2.174-1.428c-0.623-0.607-1.109-1.314-1.461-2.125c-0.354-0.812-0.527-1.682-0.527-2.613V13.118
				c0-0.932,0.175-1.802,0.527-2.613c0.352-0.81,0.838-1.519,1.461-2.126c0.621-0.607,1.346-1.083,2.174-1.428
				c0.828-0.344,1.719-0.517,2.672-0.517h7.395c0.953,0,1.844,0.173,2.672,0.517c0.828,0.345,1.554,0.82,2.176,1.428
				c0.621,0.608,1.107,1.317,1.46,2.126c0.353,0.811,0.528,1.681,0.528,2.613v4.678c0,0.446-0.209,0.668-0.621,0.668h-5.096
				c-0.414,0-0.621-0.222-0.621-0.668V12.51h-8.326v30.439h8.326v-5.043c0-0.404,0.207-0.607,0.621-0.607h5.096
				c0.412,0,0.621,0.203,0.621,0.607V42.281z"/>
			<path fill="#FFFFFF" d="M226.419,48.357c0,0.404-0.207,0.605-0.621,0.605h-5.095c-0.415,0-0.622-0.201-0.622-0.605V30.737h-9.135
				v17.621c0,0.404-0.227,0.605-0.682,0.605h-5.097c-0.414,0-0.621-0.201-0.621-0.605V7.042c0-0.404,0.207-0.607,0.621-0.607h5.097
				c0.455,0,0.682,0.203,0.682,0.607v17.62h9.135V7.042c0-0.404,0.207-0.607,0.622-0.607h5.095c0.414,0,0.621,0.203,0.621,0.607
				V48.357z"/>
			<path fill="#FFFFFF" d="M249.224,48.357c0,0.404-0.229,0.605-0.684,0.605h-9.072c-0.953,0-1.844-0.172-2.672-0.516
				c-0.829-0.344-1.554-0.82-2.175-1.428c-0.622-0.607-1.108-1.316-1.46-2.127c-0.354-0.811-0.528-1.682-0.528-2.613V13.118
				c0-0.932,0.175-1.802,0.528-2.613c0.352-0.81,0.838-1.519,1.46-2.126c0.621-0.607,1.346-1.083,2.175-1.428
				c0.828-0.344,1.719-0.517,2.672-0.517h9.072c0.455,0,0.684,0.203,0.684,0.607v4.8c0,0.446-0.229,0.668-0.684,0.668h-9.508v12.153
				h9.508c0.455,0,0.684,0.203,0.684,0.607v4.8c0,0.405-0.229,0.607-0.684,0.607h-9.508v12.271h9.508
				c0.455,0,0.684,0.203,0.684,0.609V48.357z"/>
			<path fill="#FFFFFF" d="M277.245,48.357c0,0.404-0.207,0.605-0.621,0.605h-5.096c-0.414,0-0.621-0.201-0.621-0.605V12.51h-9.135
				v35.848c0,0.404-0.228,0.605-0.683,0.605h-5.096c-0.414,0-0.621-0.201-0.621-0.605V7.042c0-0.404,0.207-0.607,0.621-0.607h5.096
				c0.455,0,0.683,0.203,0.683,0.607V8.5c0.58-0.647,1.307-1.154,2.176-1.519c0.869-0.365,1.781-0.547,2.734-0.547h3.729
				c0.951,0,1.842,0.173,2.672,0.517c0.828,0.345,1.553,0.82,2.174,1.428c0.621,0.608,1.108,1.317,1.461,2.126
				c0.352,0.811,0.527,1.681,0.527,2.613V48.357z"/>
		</g>
	</g>
	<g>
		<path fill="#FFFFFF" d="M3.869,57.061h5.234v1.218H5.109v2.526h3.409v1.147H5.109v3.651h-1.24V57.061z"/>
		<path fill="#FFFFFF" d="M11.677,57.061h3.201c0.683,0,1.24,0.188,1.671,0.562c0.519,0.426,0.79,1.033,0.812,1.822
			c-0.015,1.16-0.542,1.949-1.582,2.367l1.896,3.791h-1.474l-1.696-3.651h-1.589v3.651h-1.24V57.061z M12.917,60.805h1.882
			c0.466-0.008,0.815-0.148,1.048-0.423c0.229-0.255,0.344-0.567,0.344-0.94c-0.008-0.446-0.145-0.77-0.411-0.969
			c-0.21-0.177-0.515-0.265-0.913-0.265h-1.949V60.805z"/>
		<path fill="#FFFFFF" d="M20.07,61.332c0-0.994,0.028-1.66,0.084-1.996c0.06-0.338,0.151-0.609,0.275-0.816
			c0.198-0.394,0.517-0.744,0.955-1.051c0.431-0.312,0.968-0.471,1.612-0.479c0.651,0.008,1.194,0.168,1.629,0.48
			c0.431,0.309,0.741,0.66,0.932,1.055c0.139,0.207,0.234,0.479,0.287,0.814c0.048,0.336,0.073,1,0.073,1.992
			c0,0.977-0.024,1.637-0.073,1.98c-0.053,0.344-0.148,0.619-0.287,0.826c-0.191,0.395-0.502,0.742-0.933,1.043
			c-0.434,0.312-0.977,0.477-1.629,0.492c-0.644-0.016-1.181-0.18-1.612-0.492c-0.438-0.301-0.756-0.648-0.955-1.043
			c-0.06-0.129-0.114-0.252-0.163-0.369c-0.045-0.121-0.083-0.273-0.112-0.457C20.098,62.969,20.07,62.309,20.07,61.332z
			 M21.311,61.332c0,0.842,0.03,1.41,0.09,1.708c0.053,0.298,0.16,0.538,0.321,0.722c0.131,0.177,0.304,0.32,0.518,0.43
			c0.21,0.129,0.461,0.193,0.754,0.193c0.296,0,0.553-0.064,0.771-0.193c0.207-0.109,0.372-0.253,0.496-0.43
			c0.161-0.184,0.272-0.424,0.332-0.722c0.056-0.298,0.084-0.866,0.084-1.708s-0.028-1.416-0.084-1.721
			c-0.06-0.29-0.171-0.527-0.332-0.711c-0.124-0.176-0.289-0.322-0.496-0.439c-0.218-0.114-0.475-0.175-0.771-0.183
			c-0.293,0.008-0.544,0.068-0.754,0.183c-0.214,0.117-0.387,0.264-0.518,0.439c-0.161,0.184-0.268,0.421-0.321,0.711
			C21.34,59.916,21.311,60.49,21.311,61.332z"/>
		<path fill="#FFFFFF" d="M29.021,57.061h1.169l3.71,6.072h0.022v-6.072h1.241v8.543h-1.175l-3.705-6.074h-0.022v6.074h-1.24V57.061
			z"/>
		<path fill="#FFFFFF" d="M39.967,58.208h-2.246v-1.147h5.733v1.147h-2.247v7.396h-1.241V58.208z"/>
		<path fill="#FFFFFF" d="M48.061,61.672h3.457v1.218h-3.457V61.672z"/>
		<path fill="#FFFFFF" d="M57.661,57.061h5.234v1.218h-3.994v2.444h3.409v1.147h-3.409v2.515h3.994v1.219h-5.234V57.061z"/>
		<path fill="#FFFFFF" d="M65.695,57.061h1.169l3.71,6.072h0.022v-6.072h1.241v8.543h-1.175l-3.705-6.074h-0.022v6.074h-1.24V57.061
			z"/>
		<path fill="#FFFFFF" d="M75.249,57.061h2.867c1.109,0.008,1.941,0.488,2.496,1.441c0.198,0.32,0.324,0.656,0.376,1.008
			c0.041,0.352,0.062,0.959,0.062,1.822c0,0.918-0.032,1.559-0.095,1.922c-0.03,0.184-0.075,0.348-0.135,0.492
			c-0.064,0.141-0.141,0.287-0.23,0.439c-0.24,0.402-0.574,0.734-1.001,0.996c-0.423,0.281-0.942,0.422-1.557,0.422h-2.782V57.061z
			 M76.489,64.385h1.485c0.698,0,1.204-0.248,1.52-0.746c0.139-0.184,0.227-0.416,0.264-0.698c0.034-0.278,0.051-0.798,0.051-1.562
			c0-0.744-0.017-1.276-0.051-1.598c-0.045-0.32-0.152-0.581-0.321-0.781c-0.345-0.496-0.833-0.737-1.463-0.722h-1.485V64.385z"/>
		<path fill="#FFFFFF" d="M88.434,57.061h2.867c1.109,0.008,1.941,0.488,2.496,1.441c0.198,0.32,0.324,0.656,0.376,1.008
			c0.041,0.352,0.062,0.959,0.062,1.822c0,0.918-0.032,1.559-0.095,1.922c-0.03,0.184-0.075,0.348-0.135,0.492
			c-0.064,0.141-0.141,0.287-0.23,0.439c-0.24,0.402-0.574,0.734-1.001,0.996c-0.423,0.281-0.942,0.422-1.557,0.422h-2.782V57.061z
			 M89.674,64.385h1.485c0.698,0,1.204-0.248,1.52-0.746c0.139-0.184,0.227-0.416,0.264-0.698c0.034-0.278,0.051-0.798,0.051-1.562
			c0-0.744-0.017-1.276-0.051-1.598c-0.045-0.32-0.152-0.581-0.321-0.781c-0.345-0.496-0.833-0.737-1.463-0.722h-1.485V64.385z"/>
		<path fill="#FFFFFF" d="M97.344,57.061h5.234v1.218h-3.994v2.444h3.409v1.147h-3.409v2.515h3.994v1.219h-5.234V57.061z"/>
		<path fill="#FFFFFF" d="M104.525,57.061h1.313l1.857,6.507h0.022l1.863-6.507h1.313l-2.705,8.543h-0.965L104.525,57.061z"/>
		<path fill="#FFFFFF" d="M113.413,57.061h5.234v1.218h-3.994v2.444h3.409v1.147h-3.409v2.515h3.994v1.219h-5.234V57.061z"/>
		<path fill="#FFFFFF" d="M121.447,57.061h1.24v7.324h3.994v1.219h-5.234V57.061z"/>
		<path fill="#FFFFFF" d="M129.202,61.332c0-0.994,0.028-1.66,0.084-1.996c0.06-0.338,0.151-0.609,0.275-0.816
			c0.198-0.394,0.517-0.744,0.955-1.051c0.431-0.312,0.968-0.471,1.612-0.479c0.651,0.008,1.194,0.168,1.629,0.48
			c0.431,0.309,0.741,0.66,0.932,1.055c0.139,0.207,0.234,0.479,0.287,0.814c0.048,0.336,0.073,1,0.073,1.992
			c0,0.977-0.024,1.637-0.073,1.98c-0.053,0.344-0.148,0.619-0.287,0.826c-0.191,0.395-0.502,0.742-0.933,1.043
			c-0.434,0.312-0.977,0.477-1.629,0.492c-0.644-0.016-1.181-0.18-1.612-0.492c-0.438-0.301-0.756-0.648-0.955-1.043
			c-0.06-0.129-0.114-0.252-0.163-0.369c-0.045-0.121-0.083-0.273-0.112-0.457C129.23,62.969,129.202,62.309,129.202,61.332z
			 M130.443,61.332c0,0.842,0.03,1.41,0.09,1.708c0.053,0.298,0.16,0.538,0.321,0.722c0.131,0.177,0.304,0.32,0.518,0.43
			c0.21,0.129,0.461,0.193,0.754,0.193c0.296,0,0.553-0.064,0.771-0.193c0.207-0.109,0.372-0.253,0.496-0.43
			c0.161-0.184,0.272-0.424,0.332-0.722c0.056-0.298,0.084-0.866,0.084-1.708s-0.028-1.416-0.084-1.721
			c-0.06-0.29-0.171-0.527-0.332-0.711c-0.124-0.176-0.289-0.322-0.496-0.439c-0.218-0.114-0.475-0.175-0.771-0.183
			c-0.293,0.008-0.544,0.068-0.754,0.183c-0.214,0.117-0.387,0.264-0.518,0.439c-0.161,0.184-0.268,0.421-0.321,0.711
			C130.473,59.916,130.443,60.49,130.443,61.332z"/>
		<path fill="#FFFFFF" d="M138.153,57.061h2.97c0.323,0,0.634,0.031,0.935,0.094c0.299,0.082,0.604,0.25,0.91,0.504
			c0.259,0.191,0.468,0.465,0.629,0.82c0.169,0.344,0.253,0.75,0.253,1.218c0,0.633-0.214,1.209-0.642,1.729
			c-0.438,0.547-1.08,0.828-1.924,0.844h-1.89v3.335h-1.24V57.061z M139.394,61.051h1.841c0.461-0.008,0.809-0.156,1.042-0.447
			c0.222-0.283,0.333-0.597,0.333-0.941c0-0.287-0.046-0.528-0.136-0.725c-0.094-0.176-0.225-0.316-0.395-0.418
			c-0.255-0.168-0.551-0.249-0.889-0.241h-1.796V61.051z"/>
		<path fill="#FFFFFF" d="M146.622,57.061h5.234v1.218h-3.994v2.444h3.409v1.147h-3.409v2.515h3.994v1.219h-5.234V57.061z"/>
		<path fill="#FFFFFF" d="M154.656,57.061h3.201c0.683,0,1.239,0.188,1.671,0.562c0.52,0.426,0.79,1.033,0.812,1.822
			c-0.015,1.16-0.542,1.949-1.582,2.367l1.896,3.791h-1.475l-1.695-3.651h-1.589v3.651h-1.24V57.061z M155.896,60.805h1.882
			c0.466-0.008,0.815-0.148,1.048-0.423c0.229-0.255,0.344-0.567,0.344-0.94c-0.008-0.446-0.145-0.77-0.411-0.969
			c-0.211-0.177-0.515-0.265-0.913-0.265h-1.949V60.805z"/>
		<path fill="#FFFFFF" d="M178.809,60.904h2.912v1.738c-0.015,0.854-0.296,1.57-0.843,2.146c-0.55,0.574-1.243,0.869-2.078,0.885
			c-0.644-0.016-1.182-0.18-1.611-0.492c-0.438-0.301-0.757-0.648-0.955-1.043c-0.061-0.129-0.114-0.252-0.163-0.369
			c-0.045-0.121-0.083-0.273-0.112-0.457c-0.057-0.344-0.084-1.004-0.084-1.98c0-0.992,0.027-1.656,0.084-1.992
			c0.06-0.336,0.151-0.607,0.275-0.814c0.198-0.395,0.517-0.746,0.955-1.055c0.43-0.312,0.968-0.473,1.611-0.48
			c0.79,0.008,1.435,0.252,1.933,0.732c0.498,0.484,0.812,1.084,0.943,1.798h-1.316c-0.101-0.345-0.285-0.64-0.551-0.884
			c-0.277-0.23-0.615-0.351-1.013-0.358c-0.292,0.008-0.544,0.068-0.754,0.183c-0.214,0.117-0.386,0.264-0.518,0.439
			c-0.161,0.184-0.268,0.421-0.32,0.711c-0.06,0.305-0.09,0.879-0.09,1.721s0.03,1.41,0.09,1.708
			c0.053,0.298,0.159,0.538,0.321,0.722c0.131,0.177,0.304,0.32,0.518,0.43c0.21,0.129,0.462,0.193,0.754,0.193
			c0.484,0,0.884-0.172,1.199-0.518c0.315-0.328,0.477-0.762,0.484-1.299v-0.446h-1.672V60.904z"/>
		<path fill="#FFFFFF" d="M184.825,57.061h3.201c0.683,0,1.239,0.188,1.671,0.562c0.52,0.426,0.79,1.033,0.812,1.822
			c-0.015,1.16-0.542,1.949-1.582,2.367l1.896,3.791h-1.475l-1.695-3.651h-1.589v3.651h-1.24V57.061z M186.065,60.805h1.882
			c0.466-0.008,0.815-0.148,1.048-0.423c0.229-0.255,0.344-0.567,0.344-0.94c-0.008-0.446-0.145-0.77-0.411-0.969
			c-0.211-0.177-0.515-0.265-0.913-0.265h-1.949V60.805z"/>
		<path fill="#FFFFFF" d="M197.695,63.692h-3.107l-0.629,1.911h-1.315l2.979-8.543h1.04l2.978,8.543h-1.309L197.695,63.692z
			 M197.342,62.545l-1.186-3.737h-0.022l-1.186,3.737H197.342z"/>
		<path fill="#FFFFFF" d="M202.17,57.061h2.97c0.322,0,0.634,0.031,0.934,0.094c0.3,0.082,0.604,0.25,0.911,0.504
			c0.259,0.191,0.468,0.465,0.629,0.82c0.169,0.344,0.253,0.75,0.253,1.218c0,0.633-0.214,1.209-0.642,1.729
			c-0.438,0.547-1.08,0.828-1.924,0.844h-1.891v3.335h-1.24V57.061z M203.41,61.051h1.842c0.461-0.008,0.809-0.156,1.041-0.447
			c0.222-0.283,0.333-0.597,0.333-0.941c0-0.287-0.046-0.528-0.136-0.725c-0.094-0.176-0.226-0.316-0.395-0.418
			c-0.255-0.168-0.552-0.249-0.89-0.241h-1.796V61.051z"/>
		<path fill="#FFFFFF" d="M215.129,61.87h-3.25v3.733h-1.24v-8.543h1.24v3.662h3.25v-3.662h1.24v8.543h-1.24V61.87z"/>
		<path fill="#FFFFFF" d="M219.764,57.061h1.24v8.543h-1.24V57.061z"/>
		<path fill="#FFFFFF" d="M229.779,63.217c-0.18,0.791-0.522,1.4-1.028,1.824c-0.521,0.422-1.138,0.633-1.85,0.633
			c-0.645-0.016-1.182-0.18-1.612-0.492c-0.438-0.301-0.757-0.648-0.955-1.043c-0.061-0.129-0.114-0.252-0.163-0.369
			c-0.045-0.121-0.083-0.273-0.112-0.457c-0.057-0.344-0.084-1.004-0.084-1.98c0-0.992,0.027-1.656,0.084-1.992
			c0.06-0.336,0.151-0.607,0.275-0.814c0.198-0.395,0.517-0.746,0.955-1.055c0.431-0.312,0.969-0.473,1.613-0.48
			c0.79,0.008,1.435,0.251,1.933,0.73c0.498,0.484,0.813,1.082,0.944,1.797h-1.317c-0.101-0.345-0.285-0.639-0.551-0.881
			c-0.278-0.23-0.616-0.351-1.014-0.358c-0.293,0.008-0.544,0.068-0.754,0.183c-0.214,0.117-0.387,0.264-0.518,0.439
			c-0.162,0.184-0.269,0.421-0.321,0.711c-0.06,0.305-0.09,0.879-0.09,1.721s0.03,1.41,0.09,1.708
			c0.053,0.298,0.159,0.538,0.321,0.722c0.131,0.177,0.304,0.32,0.518,0.43c0.21,0.129,0.462,0.193,0.755,0.193
			c0.698,0,1.22-0.389,1.565-1.168H229.779z"/>
		<path fill="#FFFFFF" d="M240.76,63.692h-3.107l-0.629,1.911h-1.315l2.979-8.543h1.04l2.978,8.543h-1.309L240.76,63.692z
			 M240.406,62.545l-1.186-3.737h-0.022l-1.186,3.737H240.406z"/>
		<path fill="#FFFFFF" d="M245.234,57.061h3.201c0.683,0,1.239,0.188,1.671,0.562c0.52,0.426,0.79,1.033,0.812,1.822
			c-0.015,1.16-0.542,1.949-1.582,2.367l1.896,3.791h-1.475l-1.695-3.651h-1.589v3.651h-1.24V57.061z M246.475,60.805h1.882
			c0.466-0.008,0.815-0.148,1.048-0.423c0.229-0.255,0.344-0.567,0.344-0.94c-0.008-0.446-0.145-0.77-0.411-0.969
			c-0.211-0.177-0.515-0.265-0.913-0.265h-1.949V60.805z"/>
		<path fill="#FFFFFF" d="M255.084,58.208h-2.246v-1.147h5.733v1.147h-2.247v7.396h-1.24V58.208z"/>
		<path fill="#FFFFFF" d="M261.059,57.061h1.24v8.543h-1.24V57.061z"/>
		<path fill="#FFFFFF" d="M265.649,63.533c0.652,0.561,1.428,0.844,2.328,0.852c1.064-0.016,1.604-0.412,1.62-1.19
			c0.008-0.638-0.349-1.021-1.068-1.149c-0.33-0.047-0.691-0.1-1.085-0.158c-0.704-0.121-1.24-0.393-1.607-0.815
			c-0.379-0.434-0.567-0.962-0.567-1.583c0-0.747,0.237-1.35,0.713-1.807c0.46-0.453,1.113-0.684,1.959-0.691
			c1.019,0.023,1.903,0.316,2.656,0.882l-0.691,1.063c-0.615-0.422-1.292-0.642-2.03-0.657c-0.383,0-0.701,0.1-0.956,0.299
			c-0.266,0.208-0.403,0.517-0.41,0.927c0,0.246,0.092,0.469,0.275,0.668c0.184,0.204,0.478,0.345,0.883,0.423
			c0.225,0.039,0.531,0.084,0.922,0.135c0.768,0.109,1.336,0.397,1.703,0.862c0.363,0.457,0.545,0.989,0.545,1.596
			c-0.041,1.634-1,2.463-2.875,2.486c-1.213,0-2.256-0.389-3.128-1.166L265.649,63.533z"/>
		<path fill="#FFFFFF" d="M275.184,58.208h-2.246v-1.147h5.733v1.147h-2.247v7.396h-1.24V58.208z"/>
	</g>
</g>
</svg>
