<?xml version="1.0" encoding="utf-8"?>
<!-- Generator: Adobe Illustrator 16.0.4, SVG Export Plug-In . SVG Version: 6.00 Build 0)  -->
<!DOCTYPE svg PUBLIC "-//W3C//DTD SVG 1.1//EN" "http://www.w3.org/Graphics/SVG/1.1/DTD/svg11.dtd">
<svg version="1.1" id="Layer_1" xmlns="http://www.w3.org/2000/svg" xmlns:xlink="http://www.w3.org/1999/xlink" x="0px" y="0px"
	 width="282.092px" height="71.383px" viewBox="0 0 282.092 71.383" enable-background="new 0 0 282.092 71.383"
	 xml:space="preserve">
<g>
	<g>
		<g>
			<polygon fill="#FF3B3F" points="4.898,12.935 4.898,28.277 10.5,25.438 10.5,17.958 14.151,17.958 14.151,27.132 4.898,32.099 
				4.898,38.338 19.944,29.84 19.944,12.935 			"/>
			<polygon fill="#FF3B3F" points="38.49,12.935 38.49,28.277 32.889,25.438 32.889,17.958 29.24,17.958 29.24,27.132 38.49,32.099 
				38.49,38.338 23.445,29.84 23.445,12.935 			"/>
		</g>
		<polygon fill="#FF3B3F" points="21.62,33.309 4.909,43.24 4.909,48.838 21.62,38.91 38.329,48.838 38.329,43.24 		"/>
		<rect x="4.898" y="4.798" fill="#FF3B3F" width="33.248" height="4.947"/>
		<rect x="141.653" y="59.164" fill="#FF3B3F" width="4.754" height="4.947"/>
	</g>
	<text transform="matrix(1.0227 0 0 1 46.7231 48.0527)" fill="#FFFFFF" font-family="'FeaturedItem'" font-size="60.7574">DAVID</text>
	
		<text transform="matrix(1.0227 0 0 1 165.8369 48.0527)" font-family="'FeaturedItem'" font-size="60.7574" letter-spacing="-2.933"> </text>
	<text transform="matrix(1.0227 0 0 1 174.7842 48.0527)" fill="#FFFFFF" font-family="'FeaturedItem'" font-size="60.7574">CHEN</text>
	<g>
		<text transform="matrix(1.0182 0 0 1 5.0825 66.584)" fill="#FFFFFF" font-family="'DINAlternate-Bold'" font-size="15.5045">WEB DEVELOPER</text>
		<text transform="matrix(1.0182 0 0 1 152.0654 66.584)" fill="#FFFFFF" font-family="'DINAlternate-Bold'" font-size="15.5045">GRAPHIC ARTIST</text>
	</g>
</g>
</svg>
